<?xml version="1.0" encoding="utf-8"?>
<!-- Generator: Adobe Illustrator 24.1.1, SVG Export Plug-In . SVG Version: 6.00 Build 0)  -->
<svg version="1.1" id="Capa_1" xmlns="http://www.w3.org/2000/svg" xmlns:xlink="http://www.w3.org/1999/xlink" x="0px" y="0px"
	 viewBox="0 0 426.7 426.7" style="enable-background:new 0 0 426.7 426.7;" xml:space="preserve">
<style type="text/css">
	.st0{fill:#FFFFFF;}
</style>
<g>
	<g>
		<path class="st0" d="M62.4,62.6c-83.3,83.3-83.3,218.3,0.1,301.6s218.3,83.4,301.6,0.1s83.4-218.4,0.1-301.8S145.8-20.8,62.4,62.6
			z M93.2,93.2c30.7,5.5,60.6,15.8,88.6,31l-57.6,57.6C109,153.8,98.7,123.9,93.2,93.2z M126.7,360.3c-12.1-7.2-23.7-15.8-34.1-26.2
			s-19.1-21.9-26.2-34.1l50.9-50.9c8.7,11.1,17.9,21.9,28.1,32.2c10.3,10.3,21.1,19.5,32.3,28.1L126.7,360.3z M169.2,378.1
			l44.5-44.5c23.8,14,48.7,25.2,74.6,33C251,384.8,208.7,388.6,169.2,378.1z M93,213l-44.5,44.5C38,218,41.8,175.6,60.1,138.4
			C67.8,164.2,79.1,189.2,93,213z M333.5,333.5c-30.6-5.6-60.6-15.9-88.6-31l57.6-57.6C317.6,272.9,327.9,302.9,333.5,333.5z
			 M278.8,208.2l-70.6,70.6c-11.3-8.4-22.3-17.5-32.6-27.8c-10.3-10.3-19.3-21.3-27.8-32.6l70.6-70.6c11.3,8.4,22.3,17.5,32.6,27.8
			C261.3,185.9,270.4,196.9,278.8,208.2z M257.4,48.6l-44.5,44.5c-23.8-14-48.7-25.2-74.5-32.9C175.6,42,217.9,38.1,257.4,48.6z
			 M366.5,288.2L366.5,288.2c-7.8-25.9-18.9-50.8-32.9-74.5l44.5-44.5C388.5,208.7,384.7,251,366.5,288.2z M309.3,177.7
			c-8.7-11.1-17.8-22-28.1-32.3s-21.1-19.5-32.3-28.1l50.9-50.9c12.1,7.2,23.8,15.8,34.2,26.2s19.1,21.9,26.2,34.2L309.3,177.7z"/>
	</g>
</g>
</svg>
