<?xml version="1.0" encoding="utf-8"?>
<!-- Generator: Adobe Illustrator 24.1.1, SVG Export Plug-In . SVG Version: 6.00 Build 0)  -->
<svg version="1.1" id="Capa_1" xmlns="http://www.w3.org/2000/svg" xmlns:xlink="http://www.w3.org/1999/xlink" x="0px" y="0px"
	 viewBox="0 0 512 512" style="enable-background:new 0 0 512 512;" xml:space="preserve">
<style type="text/css">
	.st0{fill:#FFFFFF;}
</style>
<path class="st0" d="M441.6,133.1c-18-58.3-65.5-105.7-123.7-123.8C256.1-9.8,190.5,0.8,140.4,37.8C90.6,74.4,61,133.1,61,194.8
	c0,42.6,13.5,83,38.9,116.9L256,512l156.1-200.2C450.3,261,461,195.8,441.6,133.1z M256,233.4c-21.3,0-38.6-17.3-38.6-38.5
	s17.3-38.5,38.6-38.5c21.3,0,38.5,17.3,38.5,38.5S277.3,233.4,256,233.4z"/>
</svg>
