<?xml version="1.0" encoding="utf-8"?>
<!-- Generator: Adobe Illustrator 24.1.1, SVG Export Plug-In . SVG Version: 6.00 Build 0)  -->
<svg version="1.1" id="Layer_1" xmlns="http://www.w3.org/2000/svg" xmlns:xlink="http://www.w3.org/1999/xlink" x="0px" y="0px"
	 viewBox="0 0 512 512" style="enable-background:new 0 0 512 512;" xml:space="preserve">
<style type="text/css">
	.st0{fill:#FFFFFF;}
</style>
<g>
	<path class="st0" d="M271.3,316.2h-30.6c-108,0-195.8,87.8-195.8,195.8h61.2c0-74.2,60.4-134.6,134.6-134.6h30.6
		c74.2,0,134.6,60.4,134.6,134.6h61.2C467.1,404,379.3,316.2,271.3,316.2z"/>
	<path class="st0" d="M254,295.8c81.5,0,147.9-66.3,147.9-147.9S335.5,0,254,0S106.1,66.3,106.1,147.9S172.4,295.8,254,295.8z
		 M254,61.2c47.8,0,86.7,38.9,86.7,86.7s-38.9,86.7-86.7,86.7s-86.7-38.9-86.7-86.7S206.2,61.2,254,61.2z"/>
</g>
</svg>
