<?xml version="1.0" encoding="utf-8"?>
<!-- Generator: Adobe Illustrator 24.1.1, SVG Export Plug-In . SVG Version: 6.00 Build 0)  -->
<svg version="1.1" id="Capa_1" xmlns="http://www.w3.org/2000/svg" xmlns:xlink="http://www.w3.org/1999/xlink" x="0px" y="0px"
	 viewBox="0 0 926.91 321.78" style="enable-background:new 0 0 926.91 321.78;" xml:space="preserve">
<style type="text/css">
	.st0{fill:#FFFFFF;}
</style>
<g>
	<path class="st0" d="M53.33,229.81c3.92,10.4,9.34,19.28,16.27,26.66c6.93,7.38,15.14,13.03,24.63,16.95
		c9.49,3.92,19.81,5.88,30.96,5.88c10.85,0,21.01-2.03,30.51-6.1s17.78-9.79,24.86-17.17c7.08-7.38,12.58-16.19,16.5-26.44
		s5.88-21.69,5.88-34.35V0h47.45v316.35h-47v-29.38c-10.54,11.15-22.97,19.73-37.29,25.76c-14.31,6.02-29.75,9.04-46.32,9.04
		c-16.87,0-32.62-2.94-47.23-8.81c-14.61-5.88-27.27-14.23-37.96-25.08s-19.13-23.88-25.31-39.09C3.09,233.57,0,216.63,0,197.95V0
		h47.45v195.24C47.45,207.89,49.41,219.41,53.33,229.81z"/>
	<path class="st0" d="M332.17,0v115.24c10.55-10.54,22.75-18.9,36.61-25.08s28.92-9.26,45.19-9.26c16.87,0,32.69,3.16,47.45,9.49
		c14.76,6.33,27.57,14.91,38.41,25.76s19.43,23.65,25.76,38.41c6.33,14.76,9.49,30.43,9.49,47c0,16.57-3.16,32.16-9.49,46.77
		c-6.33,14.61-14.91,27.34-25.76,38.19c-10.85,10.85-23.65,19.43-38.41,25.76c-14.76,6.33-30.58,9.49-47.45,9.49
		c-16.27,0-31.41-3.09-45.42-9.27c-14.01-6.18-26.29-14.54-36.83-25.08v28.92h-45.19V0H332.17z M337.36,232.75
		c4.07,9.64,9.72,18.08,16.95,25.31s15.67,12.96,25.31,17.17c9.64,4.22,20.04,6.33,31.18,6.33c10.85,0,21.09-2.11,30.73-6.33
		s18-9.94,25.08-17.17c7.08-7.23,12.73-15.67,16.95-25.31c4.22-9.64,6.33-20.04,6.33-31.18s-2.11-21.62-6.33-31.41
		s-9.87-18.3-16.95-25.53c-7.08-7.23-15.44-12.88-25.08-16.95s-19.89-6.1-30.73-6.1c-10.85,0-21.09,2.03-30.73,6.1
		s-18.08,9.72-25.31,16.95c-7.23,7.23-12.95,15.74-17.17,25.53c-4.22,9.79-6.33,20.26-6.33,31.41
		C331.26,212.71,333.3,223.1,337.36,232.75z"/>
	<path class="st0" d="M560.84,155.01c6.03-14.46,14.31-27.19,24.86-38.19s23.05-19.66,37.51-25.99s30.13-9.49,47-9.49
		c16.57,0,31.94,3.01,46.1,9.04c14.16,6.03,26.36,14.39,36.61,25.08c10.24,10.69,18.23,23.35,23.95,37.96
		c5.72,14.61,8.59,30.51,8.59,47.68v14.91H597.9c1.51,9.34,4.52,18,9.04,25.99c4.52,7.98,10.17,14.91,16.95,20.79
		c6.78,5.88,14.46,10.47,23.05,13.78c8.59,3.31,17.7,4.97,27.34,4.97c27.42,0,49.56-11.3,66.43-33.9l32.99,24.4
		c-11.45,15.37-25.61,27.42-42.48,36.15c-16.87,8.74-35.85,13.11-56.94,13.11c-17.17,0-33.22-3.01-48.13-9.04
		s-27.87-14.46-38.87-25.31s-19.66-23.58-25.99-38.19s-9.49-30.51-9.49-47.68C551.8,184.84,554.82,169.48,560.84,155.01z
		 M624.34,137.16c-12.8,10.7-21.32,24.93-25.53,42.71h140.55c-3.92-17.78-12.28-32.01-25.08-42.71
		c-12.8-10.69-27.79-16.04-44.97-16.04C652.13,121.12,637.14,126.47,624.34,137.16z"/>
	<path class="st0" d="M870.87,142.36c-9.64,10.54-14.46,24.86-14.46,42.93v131.06h-45.65V85.87h45.19v28.47
		c5.72-9.34,13.18-16.72,22.37-22.15c9.19-5.42,20.11-8.14,32.77-8.14h15.82v42.48h-18.98
		C892.86,126.54,880.51,131.81,870.87,142.36z"/>
</g>
</svg>
